PathFileType	4	(X/Y/Z)	D:\TRACE\spot_10-12-23\spot_arm_motion_3_3-platform.trc
DataRate	CameraRate	NumFrames	NumMarkers	Units	OrigDataRate	OrigDataStartFrame	OrigNumFrames
100.00	100.00	      24	5	mm	100.00	3501	      7000
Frame#	Time	Left_Front			Right_Front			Left_Aft			Right_Aft			Post			
		X1	Y1	Z1	X2	Y2	Z2	X3	Y3	Z3	X4	Y4	Z4	X5	Y5	Z5	

3501	35.000	-753.84637	35.14061	-633.87964	818.69708	39.76375	-627.24286	-670.85205	-14.84235	502.82706	746.45709	-13.59179	588.90704	28.72158	786.08801	-919.39233	
3502	35.010	-753.91107	35.04166	-633.90967	818.66180	39.61844	-627.29083	-670.97968	-14.68690	502.77914	746.43652	-13.42286	588.85486	28.68142	785.83478	-919.68146	
3503	35.020	-753.96948	34.87447	-633.98004	818.60876	39.44725	-627.34601	-670.96979	-14.56069	502.69736	746.38867	-13.28033	588.80017	31.82494	784.20630	-921.31543	
3504	35.030	-754.03613	34.69986	-634.09900	818.53204	39.26645	-627.42432	-670.99567	-14.43898	502.64362	746.39386	-13.09995	588.81104	28.75296	785.31934	-920.40985	
3505	35.040	-754.06500	34.45697	-634.19849	818.53833	39.06612	-627.43243	-670.99597	-14.26210	502.60449	746.40625	-12.91992	588.75854	28.64408	785.07697	-920.89453	
3506	35.050	-754.08478	34.20795	-634.34259	818.46423	38.88049	-627.46051	-670.98749	-14.10971	502.59964	746.36841	-12.78204	588.73676	28.54285	784.77740	-921.31757	
3507	35.060	-754.04816	33.95167	-634.37030	818.42255	38.65452	-627.49640	-671.01080	-13.93914	502.54822	746.38257	-12.64416	588.73022	28.48215	784.49554	-921.71466	
3508	35.070	-754.06152	33.76514	-634.40887	818.40796	38.46761	-627.46552	-671.11139	-13.74021	502.47375	746.41815	-12.50259	588.70734	28.42163	784.14935	-921.98700	
3509	35.080	-754.06476	33.49668	-634.37280	818.43719	38.20614	-627.47168	-671.02484	-13.60442	502.49817	746.37067	-12.35475	588.66931	28.45674	783.85693	-922.31244	
3510	35.090	-754.01447	33.24162	-634.39044	818.51855	37.95795	-627.53827	-671.01251	-13.45448	502.47900	746.36407	-12.18297	588.64478	28.37020	783.54114	-922.77802	
3511	35.100	-754.00592	33.00576	-634.42261	818.55017	37.75933	-627.59296	-671.08441	-13.26188	502.50961	746.36200	-11.97779	588.57111	28.61483	783.28107	-922.84491	
3512	35.110	-754.04474	32.79298	-634.46930	818.58496	37.49725	-627.71576	-671.01129	-13.14668	502.48102	746.29816	-11.78823	588.44934	28.76487	782.88745	-923.04224	
3513	35.120	-754.09351	32.56234	-634.55865	818.57300	37.24955	-627.82648	-671.14777	-13.01563	502.47922	746.25879	-11.50054	588.39990	28.85875	782.56720	-923.25067	
3514	35.130	-754.01837	32.20934	-634.74286	818.51050	36.98529	-627.93164	-671.09033	-12.83002	502.42300	746.24603	-11.27145	588.27362	28.47539	782.12817	-923.48651	
3515	35.140	-753.97870	31.93342	-634.92554	818.48987	36.75982	-628.00989	-671.13379	-12.66777	502.34616	746.24127	-11.01521	588.24792	28.41072	781.65814	-923.73169	
3516	35.150	-754.09784	31.78553	-634.98999	818.45886	36.49348	-628.04163	-671.17084	-12.54655	502.24225	746.22107	-10.79319	588.18951	28.31631	781.29803	-924.17419	
3517	35.160	-754.14960	31.63136	-635.06158	818.35510	36.19847	-628.08856	-670.93365	-12.48054	502.15610	746.15076	-10.56636	588.13843	28.82235	780.87439	-924.46124	
3518	35.170	-754.22015	31.43295	-635.10284	818.30371	35.96301	-628.10083	-671.11487	-12.12601	502.00333	746.11316	-10.39831	588.09052	28.32585	780.67755	-925.02112	
3519	35.180	-754.32129	31.11136	-635.07977	818.22772	35.67902	-628.09570	-671.14606	-11.92917	501.97330	746.07159	-10.15818	588.01404	28.29461	780.29230	-925.56244	
3520	35.190	-754.35480	30.78638	-635.11377	818.19446	35.41121	-628.15869	-671.14215	-11.72432	501.84042	746.02240	-9.99211	587.94299	28.38988	779.78906	-926.02423	
3521	35.200	-754.34741	30.50182	-635.22070	818.23273	35.19336	-628.27258	-671.15912	-11.55798	501.80225	746.11816	-9.80300	587.92322	28.39760	779.42578	-926.48499	
3522	35.210	-754.26611	30.04770	-635.34540	818.31622	34.87518	-628.37323	-671.10779	-11.39790	501.77493	746.14276	-9.60829	587.86176	28.29283	779.01697	-926.97101	
3523	35.220	-754.26282	29.73734	-635.37891	818.36584	34.66092	-628.42615	-670.96008	-11.47416	502.07620	746.14844	-9.38640	587.79486	28.18726	778.73523	-927.39679	
3524	35.230	-754.20404	29.50334	-635.41821	818.26819	34.37970	-628.58221	-670.90479	-11.25105	502.01346	746.14532	-9.10694	587.74139	28.02610	778.31622	-927.94690	
